# xmcd CD database file
#
# Track frame offsets:
#	150
#	18432
#	34735
#	50495
#	65270
#	79290
#	96325
#	117160
#	133967
#	147085
#	158875
#	171695
#
# Disc length: 2543 seconds
#
# Revision: 1
# Processed by: cddbd v1.5.2PL0 Copyright (c) Steve Scherf et al.
# Submitted via: CDex 1.51
#
DISCID=ab09ed0c
DTITLE=Conrad - Vad sägs om en romans?
DYEAR=1996
DGENRE=Jazz
TTITLE0=Vad sägs om en romans?
TTITLE1=Följ mig, fröken
TTITLE2=En kväll på Bal Palais
TTITLE3=Mitt livs skönaste morgon
TTITLE4=Äntligen fri
TTITLE5=Bara för dig
TTITLE6=Calle Jansson blues
TTITLE7=I dina ögon
TTITLE8=Otroligt, underbart!
TTITLE9=När vi gick här
TTITLE10=Riddarn i nöden
TTITLE11=Mina minnen
EXTD=YEAR: 1996
EXTT0=
EXTT1=
EXTT2=
EXTT3=
EXTT4=
EXTT5=
EXTT6=
EXTT7=
EXTT8=
EXTT9=
EXTT10=
EXTT11=
PLAYORDER=
